<mxfile host="app.diagrams.net" modified="2022-01-16T11:09:57.656Z" agent="5.0 (Windows NT 10.0; Win64; x64) AppleWebKit/537.36 (KHTML, like Gecko) Chrome/97.0.4692.71 Safari/537.36" etag="7Tt4VJK3ddvs2Xx7t3A4" version="16.2.7" type="github">
  <diagram name="Page-1" id="e7e014a7-5840-1c2e-5031-d8a46d1fe8dd">
    <mxGraphModel dx="1736" dy="964" grid="1" gridSize="10" guides="1" tooltips="1" connect="1" arrows="1" fold="1" page="1" pageScale="1" pageWidth="1169" pageHeight="826" background="none" math="0" shadow="0">
      <root>
        <mxCell id="0" />
        <mxCell id="1" parent="0" />
        <mxCell id="2" value="User" style="swimlane;whiteSpace=wrap" parent="1" vertex="1">
          <mxGeometry x="150" y="20" width="280" height="780" as="geometry" />
        </mxCell>
        <mxCell id="5" value="" style="ellipse;shape=startState;fillColor=#000000;strokeColor=#ff0000;" parent="2" vertex="1">
          <mxGeometry x="115.5" y="40" width="30" height="30" as="geometry" />
        </mxCell>
        <mxCell id="6" value="" style="edgeStyle=elbowEdgeStyle;elbow=horizontal;verticalAlign=bottom;endArrow=open;endSize=8;strokeColor=#FF0000;endFill=1;rounded=0" parent="2" source="5" target="7" edge="1">
          <mxGeometry x="100" y="40" as="geometry">
            <mxPoint x="115" y="110" as="targetPoint" />
          </mxGeometry>
        </mxCell>
        <mxCell id="7" value="Mengakses Website &#xa;dan menuju halaman blog &#xa;dengan memilih menu&#xa;&quot;posts&quot; " style="rounded=1;" parent="2" vertex="1">
          <mxGeometry x="50" y="110" width="160" height="90" as="geometry" />
        </mxCell>
        <mxCell id="mVRmNX9b32Lw5_XvcHBD-50" value="login" style="rounded=1;whiteSpace=wrap;html=1;" vertex="1" parent="2">
          <mxGeometry x="81.54999999999997" y="250" width="90" height="40" as="geometry" />
        </mxCell>
        <mxCell id="mVRmNX9b32Lw5_XvcHBD-82" style="edgeStyle=orthogonalEdgeStyle;rounded=0;orthogonalLoop=1;jettySize=auto;html=1;entryX=0.5;entryY=0;entryDx=0;entryDy=0;startArrow=none;" edge="1" parent="2" source="mVRmNX9b32Lw5_XvcHBD-80" target="mVRmNX9b32Lw5_XvcHBD-56">
          <mxGeometry relative="1" as="geometry" />
        </mxCell>
        <mxCell id="mVRmNX9b32Lw5_XvcHBD-52" value="Berhasil?" style="rhombus;whiteSpace=wrap;html=1;rounded=1;" vertex="1" parent="2">
          <mxGeometry x="79.81999999999998" y="316" width="93.46" height="77" as="geometry" />
        </mxCell>
        <mxCell id="mVRmNX9b32Lw5_XvcHBD-56" value="Registrasi" style="rounded=1;whiteSpace=wrap;html=1;" vertex="1" parent="2">
          <mxGeometry x="66.54999999999997" y="480" width="120" height="60" as="geometry" />
        </mxCell>
        <mxCell id="mVRmNX9b32Lw5_XvcHBD-54" style="edgeStyle=orthogonalEdgeStyle;rounded=0;orthogonalLoop=1;jettySize=auto;html=1;entryX=0.5;entryY=0;entryDx=0;entryDy=0;" edge="1" parent="2" source="mVRmNX9b32Lw5_XvcHBD-50" target="mVRmNX9b32Lw5_XvcHBD-52">
          <mxGeometry relative="1" as="geometry" />
        </mxCell>
        <mxCell id="mVRmNX9b32Lw5_XvcHBD-80" value="Tidak punya akun" style="text;html=1;strokeColor=none;fillColor=none;align=center;verticalAlign=middle;whiteSpace=wrap;rounded=0;" vertex="1" parent="2">
          <mxGeometry x="74.82" y="420" width="103.45" height="30" as="geometry" />
        </mxCell>
        <mxCell id="mVRmNX9b32Lw5_XvcHBD-83" value="" style="edgeStyle=orthogonalEdgeStyle;rounded=0;orthogonalLoop=1;jettySize=auto;html=1;entryX=0.5;entryY=0;entryDx=0;entryDy=0;endArrow=none;" edge="1" parent="2" source="mVRmNX9b32Lw5_XvcHBD-52" target="mVRmNX9b32Lw5_XvcHBD-80">
          <mxGeometry relative="1" as="geometry">
            <mxPoint x="276.51724137931035" y="412.973010766177" as="sourcePoint" />
            <mxPoint x="276.54999999999995" y="499.9999999999999" as="targetPoint" />
          </mxGeometry>
        </mxCell>
        <mxCell id="3" value="Himatika Blog" style="swimlane;whiteSpace=wrap" parent="1" vertex="1">
          <mxGeometry x="430" y="20" width="280" height="780" as="geometry" />
        </mxCell>
        <mxCell id="mVRmNX9b32Lw5_XvcHBD-73" style="edgeStyle=orthogonalEdgeStyle;rounded=0;orthogonalLoop=1;jettySize=auto;html=1;entryX=0.5;entryY=0;entryDx=0;entryDy=0;" edge="1" parent="3" source="mVRmNX9b32Lw5_XvcHBD-42" target="mVRmNX9b32Lw5_XvcHBD-47">
          <mxGeometry relative="1" as="geometry" />
        </mxCell>
        <mxCell id="mVRmNX9b32Lw5_XvcHBD-42" value="Tampilkan postingan yang sudah disetujui oleh admin" style="rounded=1;whiteSpace=wrap;html=1;" vertex="1" parent="3">
          <mxGeometry x="80.5" y="107.5" width="120" height="95" as="geometry" />
        </mxCell>
        <mxCell id="mVRmNX9b32Lw5_XvcHBD-47" value="Buat &lt;br&gt;postingan?" style="rhombus;whiteSpace=wrap;html=1;rounded=1;" vertex="1" parent="3">
          <mxGeometry x="92.14999999999995" y="230" width="95.69" height="80" as="geometry" />
        </mxCell>
        <mxCell id="mVRmNX9b32Lw5_XvcHBD-74" value="Buat postingan baru" style="rounded=1;whiteSpace=wrap;html=1;" vertex="1" parent="3">
          <mxGeometry x="80" y="324.5" width="120" height="60" as="geometry" />
        </mxCell>
        <mxCell id="4" value="Admin" style="swimlane;whiteSpace=wrap" parent="1" vertex="1">
          <mxGeometry x="710" y="20" width="280" height="780" as="geometry" />
        </mxCell>
        <mxCell id="38" value="" style="ellipse;shape=endState;fillColor=#000000;strokeColor=#ff0000" parent="4" vertex="1">
          <mxGeometry x="125" y="710" width="30" height="30" as="geometry" />
        </mxCell>
        <mxCell id="mVRmNX9b32Lw5_XvcHBD-89" style="edgeStyle=orthogonalEdgeStyle;rounded=0;orthogonalLoop=1;jettySize=auto;html=1;entryX=0.5;entryY=0;entryDx=0;entryDy=0;startArrow=none;" edge="1" parent="4" source="mVRmNX9b32Lw5_XvcHBD-90" target="mVRmNX9b32Lw5_XvcHBD-88">
          <mxGeometry relative="1" as="geometry" />
        </mxCell>
        <mxCell id="mVRmNX9b32Lw5_XvcHBD-94" style="edgeStyle=orthogonalEdgeStyle;rounded=0;orthogonalLoop=1;jettySize=auto;html=1;entryX=0.5;entryY=1;entryDx=0;entryDy=0;startArrow=none;" edge="1" parent="4" source="mVRmNX9b32Lw5_XvcHBD-95" target="mVRmNX9b32Lw5_XvcHBD-93">
          <mxGeometry relative="1" as="geometry" />
        </mxCell>
        <mxCell id="mVRmNX9b32Lw5_XvcHBD-86" value="Disetujui" style="rhombus;whiteSpace=wrap;html=1;rounded=1;" vertex="1" parent="4">
          <mxGeometry x="100" y="315" width="80" height="80" as="geometry" />
        </mxCell>
        <mxCell id="mVRmNX9b32Lw5_XvcHBD-92" style="edgeStyle=orthogonalEdgeStyle;rounded=0;orthogonalLoop=1;jettySize=auto;html=1;entryX=0.5;entryY=0;entryDx=0;entryDy=0;" edge="1" parent="4" source="mVRmNX9b32Lw5_XvcHBD-88" target="38">
          <mxGeometry relative="1" as="geometry" />
        </mxCell>
        <mxCell id="mVRmNX9b32Lw5_XvcHBD-88" value="Postingan di publish" style="rounded=1;whiteSpace=wrap;html=1;" vertex="1" parent="4">
          <mxGeometry x="80" y="510" width="120" height="60" as="geometry" />
        </mxCell>
        <mxCell id="mVRmNX9b32Lw5_XvcHBD-90" value="Ya" style="text;html=1;strokeColor=none;fillColor=none;align=center;verticalAlign=middle;whiteSpace=wrap;rounded=0;" vertex="1" parent="4">
          <mxGeometry x="110" y="430" width="60" height="30" as="geometry" />
        </mxCell>
        <mxCell id="mVRmNX9b32Lw5_XvcHBD-91" value="" style="edgeStyle=orthogonalEdgeStyle;rounded=0;orthogonalLoop=1;jettySize=auto;html=1;entryX=0.5;entryY=0;entryDx=0;entryDy=0;endArrow=none;" edge="1" parent="4" source="mVRmNX9b32Lw5_XvcHBD-86" target="mVRmNX9b32Lw5_XvcHBD-90">
          <mxGeometry relative="1" as="geometry">
            <mxPoint x="850" y="415" as="sourcePoint" />
            <mxPoint x="850" y="560" as="targetPoint" />
          </mxGeometry>
        </mxCell>
        <mxCell id="mVRmNX9b32Lw5_XvcHBD-93" value="Postingan dipending" style="rounded=1;whiteSpace=wrap;html=1;" vertex="1" parent="4">
          <mxGeometry x="80" y="150" width="120" height="60" as="geometry" />
        </mxCell>
        <mxCell id="mVRmNX9b32Lw5_XvcHBD-95" value="Tidak" style="text;html=1;strokeColor=none;fillColor=none;align=center;verticalAlign=middle;whiteSpace=wrap;rounded=0;" vertex="1" parent="4">
          <mxGeometry x="110" y="250" width="60" height="30" as="geometry" />
        </mxCell>
        <mxCell id="mVRmNX9b32Lw5_XvcHBD-96" value="" style="edgeStyle=orthogonalEdgeStyle;rounded=0;orthogonalLoop=1;jettySize=auto;html=1;entryX=0.5;entryY=1;entryDx=0;entryDy=0;endArrow=none;" edge="1" parent="4" source="mVRmNX9b32Lw5_XvcHBD-86" target="mVRmNX9b32Lw5_XvcHBD-95">
          <mxGeometry relative="1" as="geometry">
            <mxPoint x="850" y="335" as="sourcePoint" />
            <mxPoint x="850" y="230" as="targetPoint" />
          </mxGeometry>
        </mxCell>
        <mxCell id="mVRmNX9b32Lw5_XvcHBD-49" style="edgeStyle=orthogonalEdgeStyle;rounded=0;orthogonalLoop=1;jettySize=auto;html=1;" edge="1" parent="1" source="7" target="mVRmNX9b32Lw5_XvcHBD-42">
          <mxGeometry relative="1" as="geometry" />
        </mxCell>
        <mxCell id="mVRmNX9b32Lw5_XvcHBD-55" style="edgeStyle=orthogonalEdgeStyle;rounded=0;orthogonalLoop=1;jettySize=auto;html=1;entryX=1;entryY=0.5;entryDx=0;entryDy=0;startArrow=none;" edge="1" parent="1" source="mVRmNX9b32Lw5_XvcHBD-71" target="mVRmNX9b32Lw5_XvcHBD-50">
          <mxGeometry relative="1" as="geometry" />
        </mxCell>
        <mxCell id="mVRmNX9b32Lw5_XvcHBD-71" value="Ya" style="text;html=1;strokeColor=none;fillColor=none;align=center;verticalAlign=middle;whiteSpace=wrap;rounded=0;" vertex="1" parent="1">
          <mxGeometry x="380" y="275" width="30" height="30" as="geometry" />
        </mxCell>
        <mxCell id="mVRmNX9b32Lw5_XvcHBD-72" value="" style="edgeStyle=orthogonalEdgeStyle;rounded=0;orthogonalLoop=1;jettySize=auto;html=1;endArrow=none;" edge="1" parent="1" source="mVRmNX9b32Lw5_XvcHBD-47">
          <mxGeometry relative="1" as="geometry">
            <mxPoint x="522.1500000000001" y="290" as="sourcePoint" />
            <mxPoint x="440" y="290" as="targetPoint" />
            <Array as="points">
              <mxPoint x="410" y="290" />
            </Array>
          </mxGeometry>
        </mxCell>
        <mxCell id="mVRmNX9b32Lw5_XvcHBD-75" style="edgeStyle=orthogonalEdgeStyle;rounded=0;orthogonalLoop=1;jettySize=auto;html=1;entryX=0;entryY=0.5;entryDx=0;entryDy=0;" edge="1" parent="1" source="mVRmNX9b32Lw5_XvcHBD-52" target="mVRmNX9b32Lw5_XvcHBD-74">
          <mxGeometry relative="1" as="geometry" />
        </mxCell>
        <mxCell id="mVRmNX9b32Lw5_XvcHBD-76" style="edgeStyle=orthogonalEdgeStyle;rounded=0;orthogonalLoop=1;jettySize=auto;html=1;startArrow=none;" edge="1" parent="1" source="mVRmNX9b32Lw5_XvcHBD-77">
          <mxGeometry relative="1" as="geometry">
            <mxPoint x="230" y="290" as="targetPoint" />
            <Array as="points">
              <mxPoint x="190" y="290" />
            </Array>
          </mxGeometry>
        </mxCell>
        <mxCell id="mVRmNX9b32Lw5_XvcHBD-77" value="Tidak" style="text;html=1;strokeColor=none;fillColor=none;align=center;verticalAlign=middle;whiteSpace=wrap;rounded=0;" vertex="1" parent="1">
          <mxGeometry x="160" y="315" width="60" height="30" as="geometry" />
        </mxCell>
        <mxCell id="mVRmNX9b32Lw5_XvcHBD-78" value="" style="edgeStyle=orthogonalEdgeStyle;rounded=0;orthogonalLoop=1;jettySize=auto;html=1;endArrow=none;" edge="1" parent="1" source="mVRmNX9b32Lw5_XvcHBD-52" target="mVRmNX9b32Lw5_XvcHBD-77">
          <mxGeometry relative="1" as="geometry">
            <mxPoint x="230" y="290" as="targetPoint" />
            <mxPoint x="229.84092700403016" y="374.48275862068976" as="sourcePoint" />
            <Array as="points">
              <mxPoint x="190" y="374" />
            </Array>
          </mxGeometry>
        </mxCell>
        <mxCell id="mVRmNX9b32Lw5_XvcHBD-87" style="edgeStyle=orthogonalEdgeStyle;rounded=0;orthogonalLoop=1;jettySize=auto;html=1;" edge="1" parent="1" source="mVRmNX9b32Lw5_XvcHBD-74" target="mVRmNX9b32Lw5_XvcHBD-86">
          <mxGeometry relative="1" as="geometry" />
        </mxCell>
      </root>
    </mxGraphModel>
  </diagram>
</mxfile>
